<?xml version="1.0" encoding="UTF-8"?>
<!DOCTYPE svg PUBLIC "-//W3C//DTD SVG 1.1//EN" "http://www.w3.org/Graphics/SVG/1.1/DTD/svg11.dtd">
<svg xmlns="http://www.w3.org/2000/svg" version="1.1" width="200px" height="200px" style="shape-rendering:geometricPrecision; text-rendering:geometricPrecision; image-rendering:optimizeQuality; fill-rule:evenodd; clip-rule:evenodd" xmlns:xlink="http://www.w3.org/1999/xlink">
<g><path style="opacity:0.726" fill="#000001" d="M 88.5,148.5 C 87.3567,145.024 87.1901,141.358 88,137.5C 88.7083,136.619 89.5416,135.953 90.5,135.5C 103.043,138.145 115.71,137.979 128.5,135C 101.742,135.731 87.0756,122.898 84.5,96.5C 84.9462,89.1512 86.4462,82.1512 89,75.5C 86.0844,77.0406 83.2511,78.7073 80.5,80.5C 79.7329,86.8444 77.8996,92.8444 75,98.5C 70.9814,101.255 66.8147,103.589 62.5,105.5C 61.0222,105.238 59.6888,105.571 58.5,106.5C 56.8451,112.725 52.8451,114.892 46.5,113C 45.1772,112.184 44.5106,111.017 44.5,109.5C 53.7181,105.892 62.7181,101.726 71.5,97C 74.1322,93.4457 75.7989,89.4457 76.5,85C 76.3122,83.1182 75.3122,81.9515 73.5,81.5C 53.1832,88.3213 33.8498,97.1546 15.5,108C 13.9512,109.214 12.7845,110.714 12,112.5C 11.5014,116.152 11.3347,119.818 11.5,123.5C 11.2624,125.404 10.2624,126.738 8.5,127.5C 8.08449,121.048 8.58449,114.715 10,108.5C 17.2021,102.313 25.2021,97.3128 34,93.5C 39.7352,73.5079 51.5685,58.3413 69.5,48C 84.9316,43.3792 99.9316,44.7126 114.5,52C 119.879,55.712 124.213,60.3787 127.5,66C 141.405,67.4839 155.071,70.1506 168.5,74C 181,79.8486 188.167,89.6819 190,103.5C 191.234,112.455 190.234,121.122 187,129.5C 184.833,133 182,135.833 178.5,138C 170.392,141.536 162.059,144.369 153.5,146.5C 153.838,149.325 152.838,151.492 150.5,153C 144.688,155.309 139.354,154.476 134.5,150.5C 133.593,147.579 133.26,144.579 133.5,141.5C 118.487,143.669 103.487,146.002 88.5,148.5 Z M 79.5,47.5 C 83.1461,47.5766 86.4794,48.5766 89.5,50.5C 74.6643,57.8361 63.6643,69.0028 56.5,84C 50.8333,86.5 45.1667,89 39.5,91.5C 43.4421,76.0034 52.1088,63.5034 65.5,54C 70.1373,51.5111 74.804,49.3445 79.5,47.5 Z M 96.5,50.5 C 107.682,50.2685 116.349,55.1019 122.5,65C 117.467,65.8289 112.467,65.6623 107.5,64.5C 105.26,58.6744 101.594,54.0078 96.5,50.5 Z M 64.5,78.5 C 71.0217,66.149 80.855,57.4823 94,52.5C 99.0206,56.0015 102.187,60.6681 103.5,66.5C 94.5528,70.1445 85.2195,72.6445 75.5,74C 71.812,75.5127 68.1454,77.0127 64.5,78.5 Z M 105.5,68.5 C 121.343,68.1053 137.01,69.6053 152.5,73C 178.355,77.1892 189.855,92.3559 187,118.5C 185.481,128.851 179.648,135.184 169.5,137.5C 151.231,134.676 132.898,132.176 114.5,130C 97.3363,125.648 88.3363,114.482 87.5,96.5C 87.0496,82.6767 93.0496,73.3433 105.5,68.5 Z M 44.5,109.5 C 43.9524,107.606 42.9524,105.94 41.5,104.5C 38.839,105.332 36.1724,106.166 33.5,107C 31.522,107.481 30.1887,108.647 29.5,110.5C 30.1556,112.453 30.4889,114.453 30.5,116.5C 27.4502,118.692 24.1168,120.358 20.5,121.5C 18.742,121.123 17.0754,120.456 15.5,119.5C 13.7844,120.549 12.4511,121.882 11.5,123.5C 11.3347,119.818 11.5014,116.152 12,112.5C 12.7845,110.714 13.9512,109.214 15.5,108C 33.8498,97.1546 53.1832,88.3213 73.5,81.5C 75.3122,81.9515 76.3122,83.1182 76.5,85C 75.7989,89.4457 74.1322,93.4457 71.5,97C 62.7181,101.726 53.7181,105.892 44.5,109.5 Z M 144.5,137.5 C 151.188,138.098 157.854,138.931 164.5,140C 158.473,143.035 152.14,144.035 145.5,143C 145.613,141.253 145.279,139.42 144.5,137.5 Z"/></g>
<g><path style="opacity:1" fill="#4fc3f6" d="M 44.5,109.5 C 44.5106,111.017 45.1772,112.184 46.5,113C 52.8451,114.892 56.8451,112.725 58.5,106.5C 59.6888,105.571 61.0222,105.238 62.5,105.5C 65.298,106.1 67.9646,107.1 70.5,108.5C 71.0206,111.778 71.1873,115.111 71,118.5C 73.364,120.363 75.864,122.029 78.5,123.5C 80.6705,121.914 83.0038,120.58 85.5,119.5C 88.725,122.56 91.3917,126.06 93.5,130C 92.3679,131.765 91.3679,133.598 90.5,135.5C 89.5416,135.953 88.7083,136.619 88,137.5C 87.1901,141.358 87.3567,145.024 88.5,148.5C 88.5,152.5 88.5,156.5 88.5,160.5C 83.8642,161.149 79.1976,161.649 74.5,162C 73.4459,164.382 72.7792,166.882 72.5,169.5C 68.1756,169.927 63.8422,170.261 59.5,170.5C 59.3259,168.139 58.9926,165.806 58.5,163.5C 53.1667,163.5 47.8333,163.5 42.5,163.5C 42.0074,165.806 41.6741,168.139 41.5,170.5C 37.1756,170.073 32.8422,169.739 28.5,169.5C 28.2208,166.882 27.5541,164.382 26.5,162C 21.816,161.565 17.1493,161.065 12.5,160.5C 12.5,153.167 12.5,145.833 12.5,138.5C 12.2503,136.326 11.2503,134.659 9.5,133.5C 7.4686,131.751 7.13526,129.751 8.5,127.5C 10.2624,126.738 11.2624,125.404 11.5,123.5C 12.4511,121.882 13.7844,120.549 15.5,119.5C 17.0754,120.456 18.742,121.123 20.5,121.5C 20.7496,122.922 21.583,123.922 23,124.5C 25.4878,122.257 28.1544,120.257 31,118.5C 31.6917,117.563 31.525,116.897 30.5,116.5C 30.4889,114.453 30.1556,112.453 29.5,110.5C 30.1887,108.647 31.522,107.481 33.5,107C 36.1724,106.166 38.839,105.332 41.5,104.5C 42.9524,105.94 43.9524,107.606 44.5,109.5 Z M 30.5,138.5 C 37.5764,139.422 40.0764,143.422 38,150.5C 33.3333,155.833 28.6667,155.833 24,150.5C 21.8156,143.902 23.9823,139.902 30.5,138.5 Z M 67.5,138.5 C 75.0328,138.529 78.5328,142.196 78,149.5C 72.6667,156.167 67.3333,156.167 62,149.5C 61.3868,144.612 63.2202,140.946 67.5,138.5 Z M 48.5,143.5 C 50.1439,143.286 51.6439,143.62 53,144.5C 53.6667,147.167 53.6667,149.833 53,152.5C 51.3333,156.5 49.6667,156.5 48,152.5C 47.3658,149.445 47.5325,146.445 48.5,143.5 Z"/></g>
<g><path style="opacity:0.632" fill="#0d1418" d="M 30.5,116.5 C 31.525,116.897 31.6917,117.563 31,118.5C 28.1544,120.257 25.4878,122.257 23,124.5C 21.583,123.922 20.7496,122.922 20.5,121.5C 24.1168,120.358 27.4502,118.692 30.5,116.5 Z"/></g>
<g><path style="opacity:0.587" fill="#080f12" d="M 9.5,133.5 C 11.2503,134.659 12.2503,136.326 12.5,138.5C 10.2729,137.599 9.2729,135.933 9.5,133.5 Z"/></g>
<g><path style="opacity:1" fill="#4fc4f8" d="M 12.5,162.5 C 17.1522,162.998 21.8189,163.331 26.5,163.5C 26.5,166.167 26.5,168.833 26.5,171.5C 31.8782,171.561 37.2115,171.728 42.5,172C 43.4231,169.959 43.7564,167.792 43.5,165.5C 48.1667,165.5 52.8333,165.5 57.5,165.5C 57.2436,167.792 57.5769,169.959 58.5,172C 63.7885,171.728 69.1218,171.561 74.5,171.5C 74.5,168.833 74.5,166.167 74.5,163.5C 79.1811,163.331 83.8478,162.998 88.5,162.5C 89.2382,170.856 85.9049,177.023 78.5,181C 59.8333,188.333 41.1667,188.333 22.5,181C 15.0951,177.023 11.7618,170.856 12.5,162.5 Z"/></g>
</svg>
